<?xml version="1.0" encoding="UTF-8" standalone="no"?> <svg id="Layer_1" data-name="Layer 1" xmlns="http://www.w3.org/2000/svg" viewBox="0 0 100 100"><path d="M67.56,14.86,75.78,25.8h0L77,27.42a3.68,3.68,0,0,0,2.42,1.43,3.63,3.63,0,0,0,2.72-.7l4.05-3a3.68,3.68,0,0,0,1.43-2.42,3.64,3.64,0,0,0-.7-2.72L76.26,5.8a3.66,3.66,0,0,0-5.13-.73l-4,3a3.66,3.66,0,0,0-.73,5.13Z"/><path d="M56.14,40.56h0L47.92,29.62,46.71,28a3.67,3.67,0,0,0-5.14-.73l-4,3a3.69,3.69,0,0,0-.73,5.14L47.44,49.62a3.68,3.68,0,0,0,5.14.73l4.05-3a3.68,3.68,0,0,0,.72-5.14Z"/><path d="M55.82,84.3H9.65A6.65,6.65,0,0,0,3,91v4.72H62.46V91A6.65,6.65,0,0,0,55.82,84.3Z"/><rect x="12.76" y="69.63" width="39.94" height="11.37"/><rect x="52.87" y="22.52" width="17.96" height="10.37" transform="translate(-4.24 42.71) rotate(-36.92)"/><path d="M69,33l-4,3L92.45,72.65a2.52,2.52,0,0,0,3.54.5,2.52,2.52,0,0,0,.5-3.53Z"/></svg>