<svg width="34" height="27" viewBox="0 0 34 27" fill="none" xmlns="http://www.w3.org/2000/svg">
<path d="M0 23.3957C0 18.3347 0 13.2736 0 8.21348C0.0196824 8.16428 0.0501 8.11686 0.0581519 8.06586C0.382911 6.17814 1.85909 4.81738 3.77275 4.71986C4.9197 4.66081 6.07112 4.68944 7.22075 4.69481C7.45783 4.6957 7.59382 4.61876 7.72086 4.42015C8.25944 3.58275 8.8186 2.75788 9.36523 1.92586C10.208 0.642029 11.4095 0.0139826 12.9313 0.00772003C15.5267 -0.00301581 18.1221 -0.00212116 20.7175 0.00772003C22.2393 0.0139826 23.4408 0.64024 24.2845 1.92407C24.8311 2.7561 25.3903 3.58097 25.9288 4.41836C26.0559 4.61608 26.1892 4.69749 26.4281 4.69481C27.4462 4.68139 28.4652 4.68228 29.4833 4.69123C31.5419 4.70823 33.1058 5.91512 33.5459 7.84041C33.6229 8.17769 33.647 8.53377 33.6479 8.88179C33.6542 13.5027 33.6506 18.1244 33.6542 22.7453C33.6551 23.3779 33.5701 23.9943 33.2927 24.5642C32.5153 26.1629 31.21 26.935 29.4493 26.9359C21.0387 26.9404 12.6289 26.9377 4.21829 26.9377C4.08678 26.9377 3.95526 26.9359 3.82464 26.9278C2.08544 26.8178 0.649519 25.6905 0.170879 24.0569C0.106464 23.8386 0.0563632 23.6167 0 23.3957ZM16.8123 5.5322C11.7799 5.56173 7.71639 9.63508 7.75665 14.6094C7.79691 19.6096 11.8756 23.6677 16.8365 23.6436C21.8501 23.6194 25.9387 19.5201 25.8966 14.561C25.8528 9.55993 21.7714 5.50358 16.8123 5.5322ZM28.3185 10.3857C28.6414 10.366 28.9841 10.3768 29.3151 10.3186C29.8626 10.222 30.2375 9.70755 30.2151 9.15018C30.191 8.55971 29.7562 8.0426 29.1916 8.01129C28.6039 7.97819 28.0107 7.9764 27.4229 8.01218C26.8387 8.04797 26.4066 8.53824 26.3717 9.12513C26.3386 9.69413 26.7394 10.222 27.3236 10.3231C27.6439 10.3768 27.9758 10.366 28.3185 10.3857Z" fill="white"/>
<path d="M16.8132 9.55801C19.5688 9.53654 21.8421 11.7705 21.8779 14.535C21.9128 17.2959 19.6314 19.5942 16.8401 19.6112C14.0738 19.6282 11.813 17.4077 11.7763 14.6388C11.7388 11.8814 14.021 9.57949 16.8132 9.55801Z" fill="white"/>
</svg>
