<svg width="27" height="27" viewBox="0 0 27 27" fill="none" xmlns="http://www.w3.org/2000/svg">
<path d="M13.4186 26.9045C10.626 26.9045 7.83331 26.9377 5.04146 26.8964C1.36682 26.8421 -1.06349 23.0021 0.463761 19.6566C1.22414 17.9923 2.07856 16.3702 2.92325 14.7457C3.13402 14.3396 3.43395 13.9618 3.7574 13.6359C4.81853 12.5683 6.3247 12.3811 7.58687 13.203C8.09352 13.533 8.50209 14.0177 8.94389 14.4441C9.27058 14.7587 9.54295 15.1389 9.90044 15.4104C10.8359 16.1197 11.9611 16.0379 12.7912 15.2078C13.0871 14.9119 13.3359 14.5536 13.5451 14.1888C14.3436 12.792 15.1177 11.3815 15.8984 9.97425C16.2997 9.25116 16.7682 8.58319 17.4297 8.07168C18.623 7.14917 20.0246 7.21888 21.1205 8.25731C21.6353 8.74532 22.0171 9.32979 22.2943 9.97669C23.7073 13.2671 25.1478 16.5461 26.5064 19.8584C27.857 23.1504 25.404 26.8178 21.855 26.9029C21.7739 26.9045 21.6929 26.9078 21.6126 26.9078C18.8807 26.9078 16.1489 26.9078 13.417 26.9078C13.4186 26.9078 13.4186 26.9061 13.4186 26.9045Z" fill="white"/>
<path d="M2.59891 4.36375C2.60782 1.93101 4.56552 -0.0129057 6.99421 6.45288e-05C9.4156 0.0122242 11.3684 1.98857 11.3522 4.40996C11.336 6.81108 9.36128 8.77283 6.96421 8.76878C4.5485 8.76391 2.58999 6.78757 2.59891 4.36375Z" fill="white"/>
</svg>
