<svg width="341" height="200" viewBox="0 0 341 200" fill="none" xmlns="http://www.w3.org/2000/svg">
<path d="M65.385 198.857H34.9641C34.9641 198.857 27.507 191.389 19.5791 182.092C16.8501 178.892 14.0629 175.481 11.5085 172.08C9.18142 168.986 7.03419 165.898 5.29947 162.994C3.61765 160.191 2.31133 157.552 1.57619 155.251C0.396797 151.576 -0.46527 147.662 0.275156 143.87C0.915095 140.617 2.95656 137.238 5.9447 136.059C6.43127 135.858 6.94957 135.725 7.48902 135.662C8.59437 135.53 9.78963 135.725 11.0272 136.154C14.3538 137.317 17.9713 140.173 20.8061 142.807C21.097 143.077 21.3826 143.346 21.6523 143.611C24.1222 145.986 25.8357 148.001 25.9626 148.154C25.9256 148.08 25.8939 148.011 25.8569 147.937C22.6096 141.242 19.394 133.943 19.4733 126.676C19.4839 125.946 19.5209 125.222 19.595 124.492C19.706 123.45 19.8912 122.408 20.1609 121.372C21.0653 117.923 23.2072 114.311 26.6819 113.523C29.3369 112.926 31.8173 114.063 34.0809 116.194C34.2607 116.358 34.4299 116.532 34.6098 116.718C35.1122 117.236 35.6093 117.802 36.0906 118.405C36.1012 118.41 36.1012 118.415 36.1065 118.426C36.2598 118.622 36.4079 118.817 36.5613 119.018C38.3278 121.361 39.9197 124.212 41.3159 127.11C41.3265 127.126 41.3318 127.147 41.3423 127.168C43.5954 131.875 45.3195 136.704 46.372 139.702C46.409 139.814 46.4513 139.925 46.4936 140.036C46.7792 140.85 47.0172 141.511 47.1864 141.971C47.2658 142.178 47.3345 142.347 47.3874 142.469C47.3504 142.252 47.3134 142.035 47.2763 141.813C47.1917 141.316 47.1124 140.813 47.033 140.311C46.7527 138.518 46.5306 136.709 46.52 134.921C46.5095 133.123 46.7104 131.346 47.2658 129.633C47.4033 129.215 47.5619 128.808 47.7523 128.406C47.7523 128.4 47.7523 128.4 47.7523 128.4C47.911 128.067 48.0855 127.745 48.2759 127.422C50.127 124.344 53.4906 122.107 56.9442 122.784C62.3334 123.842 64.2109 130.468 64.9513 135.91C68.0188 158.499 65.385 198.857 65.385 198.857Z" fill="#F5F5F5"/>
<path d="M49.5984 149.444C49.5402 149.323 43.7649 137.169 48.1863 127.369L48.5618 127.538C44.2197 137.159 49.9104 149.143 49.9686 149.259L49.5984 149.444Z" fill="#47393D"/>
<path d="M11.3182 172.228C11.1754 172.049 -3.02494 154.061 0.735367 142.379L1.12673 142.506C-2.56482 153.977 11.4927 171.789 11.6355 171.969L11.3182 172.228Z" fill="#47393D"/>
<path d="M17.7912 176.597C17.7066 176.502 9.57248 166.897 7.61035 159.477L8.0123 159.371C9.94798 166.702 18.0292 176.237 18.1085 176.332L17.7912 176.597Z" fill="#47393D"/>
<path d="M34.2556 160.302C28.8452 150.73 21.4832 143.944 21.4092 143.875L21.6895 143.569C21.7635 143.637 29.1678 150.46 34.6152 160.096L34.2556 160.302Z" fill="#47393D"/>
<path d="M47.16 141.855C41.0462 124.492 34.4882 116.966 34.4194 116.892L34.7315 116.617C34.8002 116.691 41.4112 124.28 47.5514 141.718L47.16 141.855Z" fill="#47393D"/>
<path d="M38.365 126.28C35.837 121.102 32.833 117.833 29.665 116.823C27.0682 115.993 25.2542 116.961 25.233 116.971L25.0374 116.606C25.1167 116.564 27.0259 115.549 29.7919 116.432C33.1133 117.49 36.1226 120.742 38.7352 126.1L38.365 126.28Z" fill="#47393D"/>
<path d="M340.718 161.339C340.485 163.438 339.803 165.887 338.819 168.526C337.661 171.641 336.08 175.015 334.329 178.384C334.318 178.4 334.308 178.421 334.297 178.437C333.541 179.886 332.758 181.33 331.954 182.753C328.294 189.263 324.354 195.303 321.959 198.852H253.929C247.731 192.082 235.101 176.618 242.749 170.404C245.732 167.981 256.431 173.376 256.431 173.376C256.431 173.376 243.399 152.406 246.969 148.593C253.686 141.416 264.29 158.002 264.56 158.43C264.39 157.806 258.102 134.731 265.734 133.345C277.829 131.145 281.621 149.444 282.626 150.703C283.525 146.483 283.562 133.107 290.49 131.336C293.574 130.548 296.652 132.748 298.323 135.54C298.498 135.831 298.656 136.122 298.799 136.423C298.974 136.799 299.116 137.169 299.238 137.545C299.741 139.105 299.92 140.718 299.915 142.347C299.899 143.97 299.703 145.615 299.45 147.239C299.376 147.694 299.302 148.149 299.228 148.603C299.196 148.804 299.159 148.995 299.127 149.196C299.175 149.085 299.238 148.931 299.312 148.746C299.471 148.323 299.682 147.726 299.941 146.985C299.979 146.885 300.016 146.784 300.047 146.684C301.005 143.96 302.559 139.581 304.596 135.313C304.606 135.286 304.611 135.27 304.622 135.26C305.881 132.631 307.319 130.04 308.916 127.914C309.054 127.734 309.186 127.554 309.329 127.38C309.329 127.369 309.334 127.364 309.345 127.359C309.784 126.808 310.228 126.295 310.683 125.83C310.842 125.661 311 125.507 311.159 125.354C313.206 123.418 315.448 122.387 317.849 122.932C320.991 123.646 322.921 126.925 323.741 130.056C323.984 130.992 324.148 131.939 324.249 132.885C324.323 133.546 324.354 134.202 324.365 134.863C324.434 141.458 321.53 148.085 318.595 154.157C318.563 154.225 318.531 154.289 318.5 154.358C318.521 154.336 318.738 154.257 319.108 154.141C321.044 153.533 327.194 151.909 331.706 151.835C336.746 151.756 338.787 153.316 339.771 155.246C340.189 156.076 340.416 156.976 340.601 157.843C340.617 157.917 340.628 157.986 340.644 158.054C340.839 159.006 340.855 160.112 340.718 161.339Z" fill="#F5F5F5"/>
<path d="M332.039 182.816C332.161 182.647 343.96 165.564 339.914 155.193L339.565 155.331C343.537 165.517 331.849 182.43 331.732 182.6L332.039 182.816Z" fill="#47393D"/>
<path d="M324.407 186.973C324.481 186.889 331.838 178.173 333.609 171.435L333.25 171.34C331.499 177.993 324.195 186.64 324.127 186.73L324.407 186.973Z" fill="#47393D"/>
<path d="M311.011 165.385C315.903 156.695 322.556 150.539 322.619 150.481L322.365 150.206C322.297 150.269 315.606 156.463 310.683 165.205L311.011 165.385Z" fill="#47393D"/>
<path d="M307.293 134.514C309.577 129.818 312.296 126.851 315.157 125.936C317.505 125.185 319.145 126.057 319.161 126.068L319.34 125.74C319.266 125.703 317.542 124.778 315.046 125.582C312.042 126.544 309.324 129.495 306.959 134.356L307.293 134.514Z" fill="#47393D"/>
<path d="M211.111 12.5714H108.478V186.619H211.111V12.5714Z" fill="white"/>
<path d="M211.111 4.78632V12.5714H108.478V4.78632C108.478 2.14195 110.62 0 113.264 0H206.32C208.969 0 211.111 2.14195 211.111 4.78632Z" fill="#47393D"/>
<path d="M108.478 186.619H211.111V194.272C211.111 196.916 208.969 199.058 206.325 199.058H113.264C110.62 199.058 108.478 196.916 108.478 194.272V186.619Z" fill="#47393D"/>
<path d="M109.007 12.5714H108.478V186.677H109.007V12.5714Z" fill="#47393D"/>
<path d="M172.726 6.35709H146.864C146.61 6.35709 146.404 6.15083 146.404 5.89697C146.404 5.64311 146.61 5.43684 146.864 5.43684H172.726C172.98 5.43684 173.186 5.64311 173.186 5.89697C173.186 6.15083 172.98 6.35709 172.726 6.35709Z" fill="#E8DFDE"/>
<path d="M161.476 114.401H120.124V154.992H161.476V114.401Z" fill="#B3C0C6"/>
<path d="M199.46 114.401H165.459V120.716H199.46V114.401Z" fill="#D5DCE0"/>
<path d="M199.46 124.005H165.459V130.32H199.46V124.005Z" fill="#D5DCE0"/>
<path d="M199.46 133.425H165.459V139.74H199.46V133.425Z" fill="#D5DCE0"/>
<path d="M199.465 160.836H120.124V169.314H199.465V160.836Z" fill="#D5DCE0"/>
<path d="M199.465 173.265H120.124V176.93H199.465V173.265Z" fill="#B3C0C6"/>
<path d="M199.465 92.2835H120.124V100.761H199.465V92.2835Z" fill="#C5D1D8"/>
<path d="M199.465 104.712H120.124V108.377H199.465V104.712Z" fill="#B3C0C6"/>
<path d="M161.476 44.2458H120.124V84.837H161.476V44.2458Z" fill="#B3C0C6"/>
<path d="M199.46 44.2458H165.459V50.5605H199.46V44.2458Z" fill="#D5DCE0"/>
<path d="M199.46 53.8501H165.459V60.1649H199.46V53.8501Z" fill="#D5DCE0"/>
<path d="M199.46 63.2694H165.459V69.5842H199.46V63.2694Z" fill="#D5DCE0"/>
<path d="M199.465 22.1282H120.124V30.6061H199.465V22.1282Z" fill="#D5DCE0"/>
<path d="M199.465 34.5567H120.124V38.2219H199.465V34.5567Z" fill="#B3C0C6"/>
<path d="M253.363 198.17C244.05 190.02 240.623 178.892 240.591 178.781L241.099 178.628C241.131 178.739 244.521 189.724 253.712 197.768L253.363 198.17Z" fill="#47393D"/>
<path d="M30.8653 103.11C34.8371 97.8102 35.6357 90.3002 32.8644 84.2816C32.0817 82.5839 30.9975 80.9603 29.4109 79.9766C27.8243 78.9929 25.6664 78.776 24.1168 79.8232C22.4615 80.9391 21.9009 83.1075 21.7528 85.1014C21.6047 87.0899 21.7157 89.1684 20.896 90.993C18.68 95.9275 11.0748 96.3717 8.7107 101.237C7.54717 103.638 8.48328 107.155 10.9637 108.541C15.6548 111.159 26.8934 108.409 30.8653 103.11Z" fill="#F5F5F5"/>
<path d="M98.2811 7.45714C78.5117 6.35708 68.9391 20.6314 64.3801 30.1406L64.0046 29.9714C68.6164 20.3564 78.3213 5.89696 98.3498 7.01289L98.2811 7.45714Z" fill="#47393D"/>
<path d="M98.958 4.0089C88.2906 1.20057 78.6704 8.22932 78.5752 8.30337L78.353 7.94373C78.4482 7.86969 88.2377 0.714003 99.1008 3.57522L98.958 4.0089Z" fill="#47393D"/>
<path d="M87.0268 193.267L85.7363 182.822H93.3944L93.7276 193.267H87.0268Z" fill="#FFB486"/>
<path d="M93.5847 188.756C90.6918 189.512 86.392 188.137 86.392 188.137L86.0906 185.656L93.5054 186.281L93.5847 188.756Z" fill="#FCA377"/>
<path d="M50.5081 193.267L51.2115 182.822H58.8696L57.2089 193.267H50.5081Z" fill="#FFB486"/>
<path d="M58.5152 185.054L57.9916 188.348C54.4588 188.555 51.9466 187.248 50.9629 186.619L51.1797 183.414L58.5152 185.054Z" fill="#FCA377"/>
<path d="M103.316 186.72C103.316 186.72 98.2016 122.493 84.3927 91.2681L71.5569 91.9133C71.5569 91.9133 72.6517 137.137 82.2825 186.72C82.2825 186.72 94.3303 189.581 103.316 186.72Z" fill="black"/>
<path d="M66.9396 186.72C66.9396 186.72 54.3048 188.761 47.0962 183.858C47.0962 183.858 50.9358 114.221 62.6874 91.3844H76.507C76.507 91.3844 76.0521 128.924 66.9396 186.72Z" fill="black"/>
<path d="M62.9946 58.3297C63.3331 57.1133 63.9731 55.5637 63.9731 55.5637C63.7509 56.7272 63.7456 58.0177 63.7668 58.7105C66.7655 60.0856 73.0327 61.8785 82.764 59.4985C82.6424 58.499 82.5842 57.5523 82.5842 57.5523C82.7587 58.1869 83.002 58.8269 83.2453 59.3822C83.5943 59.2923 83.9434 59.2024 84.2977 59.1019C84.0069 57.8643 83.8799 55.7171 83.8799 55.7171C84.2184 57.0075 84.8901 58.3244 85.1757 58.848C85.768 58.6682 86.3709 58.4778 86.9897 58.2662C86.9897 58.2662 85.0487 55.3045 83.7794 47.6041C82.7323 41.2735 79.485 38.28 74.5506 38.4123C64.4014 38.682 61.6936 57.5205 61.6936 57.5205C61.6936 57.5205 62.122 57.8643 62.9946 58.3297Z" fill="#47393D"/>
<path d="M98.0857 80.6694C98.0857 80.6694 94.0186 62.3597 77.8456 61.413C52.9514 59.9533 45.2986 76.1475 45.2986 76.1475L98.0857 80.6694Z" fill="#E7E7E7"/>
<path d="M72.3134 43.0558C75.0636 41.485 79.8869 41.4163 80.9923 45.1343C82.013 48.5667 81.8491 58.9168 77.2531 58.7211C72.4509 58.5148 70.9384 54.8656 70.51 52.6337C70.3513 51.8298 69.5633 44.6265 72.3134 43.0558Z" fill="#FFB486"/>
<path d="M70.6208 52.4486C70.6208 52.4486 68.4736 53.1097 68.0769 51.1793C67.7173 49.4393 69.7799 48.7623 70.4463 49.5239L70.6208 52.4486Z" fill="#FFB486"/>
<path d="M101.481 89.9036C106.59 85.699 114.227 74.0161 114.227 74.0161C114.761 73.6565 117.035 72.091 117.834 70.4938C118.188 69.7798 118.008 69.1875 117.411 69.2139C117.49 68.5476 117.189 68.2884 116.564 68.4259C116.522 67.7966 116.194 67.6749 115.761 67.786C115.57 66.2998 112.54 69.4308 112.339 69.9015C112.207 70.2188 111.799 71.4088 111.704 71.7684C111.572 72.2444 97.0596 82.8325 97.0596 82.8325L101.481 89.9036Z" fill="#FFB486"/>
<path d="M116.358 73.4132C117.093 73.043 117.395 72.1492 117.024 71.4088L111.593 60.5562C111.223 59.8211 110.324 59.5196 109.588 59.8899C108.853 60.2601 108.552 61.1539 108.922 61.8943L114.354 72.7468C114.724 73.482 115.618 73.7834 116.358 73.4132Z" fill="#B71C1C"/>
<path d="M115.11 61.3288C120.145 56.1574 120.035 47.8835 114.863 42.8486C109.692 37.8136 101.418 37.9242 96.383 43.0956C91.348 48.2669 91.4586 56.5408 96.6299 61.5757C101.801 66.6107 110.075 66.5001 115.11 61.3288Z" fill="#B71C1C"/>
<path d="M95.8801 57.145C94.5632 54.5112 94.3464 51.5178 95.2772 48.7253C96.208 45.9276 98.1701 43.664 100.804 42.3471C103.438 41.0302 106.426 40.8133 109.224 41.7442C112.021 42.675 114.285 44.6371 115.602 47.2709C116.919 49.9047 117.136 52.8981 116.205 55.6906C115.274 58.4884 113.312 60.7519 110.678 62.0688C109.097 62.8622 107.415 63.2324 105.76 63.2324C101.714 63.2377 97.8105 61.0058 95.8801 57.145ZM100.984 42.7014C98.4452 43.9707 96.5518 46.155 95.658 48.847C94.7642 51.5389 94.9652 54.4213 96.2398 56.9599C98.863 62.2011 105.262 64.3324 110.504 61.7092C113.042 60.4399 114.935 58.2557 115.829 55.5637C116.728 52.8717 116.522 49.9893 115.248 47.4507C113.978 44.9121 111.794 43.0187 109.102 42.1249C107.997 41.76 106.865 41.5749 105.733 41.5749C104.104 41.5749 102.486 41.9504 100.984 42.7014Z" fill="white"/>
<path d="M106.336 56.082L108.489 55.0031L104.596 44.1241L99.9578 46.4459L106.336 56.082Z" fill="white"/>
<path d="M108.137 59.6763L110.289 58.5992L109.264 56.5515L107.112 57.6286L108.137 59.6763Z" fill="white"/>
<path d="M117.834 69.5154C118.056 69.7058 118.061 70.0443 117.839 70.2347C117.447 70.5785 116.919 70.8852 116.675 70.8006C116.247 70.6472 116.765 70.0284 117.157 69.5683C117.331 69.3673 117.633 69.3409 117.834 69.5154Z" fill="#FFB486"/>
<path d="M117.088 69.1928C117.209 69.3832 117.183 69.6317 117.029 69.7904C116.638 70.1924 115.945 70.7159 115.58 70.4832C115.348 70.3351 115.839 69.6529 116.268 69.1134C116.474 68.849 116.908 68.9072 117.088 69.1928Z" fill="#FFB486"/>
<path d="M116.104 68.3783C116.321 68.5317 116.374 68.8279 116.22 69.0447C115.898 69.5101 115.348 70.0654 114.734 70.0284C114.211 69.9914 114.935 69.0288 115.385 68.4418C115.543 68.2355 115.834 68.1932 116.046 68.3413L116.104 68.3783Z" fill="#FFB486"/>
<path d="M115.58 67.5268C115.839 67.7331 115.861 68.1192 115.628 68.3571C115.199 68.7855 114.591 69.2192 114.232 69.1558C113.846 69.0923 114.364 68.2725 114.766 67.659C114.946 67.3787 115.321 67.3206 115.58 67.5268Z" fill="#FFB486"/>
<path d="M112.01 71.0174C112.169 69.4361 113.121 67.7067 113.507 67.9605C113.893 68.2144 113.259 69.6106 113.475 70.0972C113.761 70.7371 113.999 71.3348 113.486 72.6517L112.01 71.0174Z" fill="#FFB486"/>
<path d="M49.6086 184.99L49.196 184.964C49.2436 184.266 53.9189 115.067 65.7975 92.5797L66.1624 92.7754C54.3261 115.179 49.6562 184.292 49.6086 184.99Z" fill="#47393D"/>
<path d="M59.6841 80.2357L55.3262 105.151C66.697 108.568 79.5275 105.5 90.0151 98.5348L85.6678 73.9632L77.5865 61.651C77.5865 61.651 73.6464 66.1517 69.2991 61.5505L57.9811 66.2998L59.6841 80.2357Z" fill="#E7E7E7"/>
<path d="M55.1301 101.935C55.1301 101.935 47.5672 90.8555 59.2765 82.9594L65.9827 64.0997V63.9728C58.1289 63.9305 49.688 68.738 45.1185 75.4706C37.4763 86.7303 38.2431 100.201 51.0419 107.14L55.1301 101.935Z" fill="#E7E7E7"/>
<path d="M113.735 77.1048L109.922 72.2021L98.7782 79.9449C98.7782 79.9449 93.0346 68.2673 88.3064 65.2474L85.2812 85.6832C85.2812 85.6832 90.7234 94.0394 98.7623 93.0345C106.383 92.0773 113.735 77.1048 113.735 77.1048Z" fill="#E7E7E7"/>
<path d="M74.1962 130.987L73.7837 130.95C74.4501 123.831 75.0054 116.866 75.4338 110.255L75.8463 110.281C75.4179 116.897 74.8626 123.863 74.1962 130.987Z" fill="#47393D"/>
<path d="M85.35 186.862C85.2654 186.45 76.7452 145.568 74.3176 124.968L74.7301 124.92C77.1524 145.504 85.6673 186.37 85.7572 186.783L85.35 186.862Z" fill="#47393D"/>
<path d="M85.8753 73.932L85.4795 74.0019L89.8162 98.5749L90.212 98.5051L85.8753 73.932Z" fill="#47393D"/>
<path d="M68.8704 49.1431C68.8704 49.1431 69.6372 48.6989 70.4041 49.5133C70.4041 49.5133 70.6051 47.8897 71.1551 46.8637L71.4989 48.6724C72.0542 48.7623 73.8259 49.0479 75.7669 49.0902C76.3116 49.1008 77.8507 49.0902 77.8507 49.0902L78.1997 46.0651L78.8555 49.0321C79.3051 48.995 79.6594 48.9474 80.0191 48.8998L80.2782 47.1175L80.7753 48.7941C81.2566 48.7147 81.5951 48.6407 81.7591 48.6037C81.8595 47.3344 81.8966 43.902 79.633 41.9134C77.0309 39.6339 71.52 40.8874 70.2454 43.6164C68.9656 46.3454 68.8704 49.1431 68.8704 49.1431Z" fill="#47393D"/>
<path d="M74.0108 63.6396C76.2903 63.6396 77.6442 61.651 77.6442 61.651L77.073 55.056L70.8006 51.3274L69.2192 61.5453C69.2192 61.5506 71.1867 63.6396 74.0108 63.6396Z" fill="#FFB486"/>
<path d="M77.036 59.086L77.0519 58.684C74.196 58.5624 72.3713 56.3782 71.34 54.5694L70.991 54.7651C72.0752 56.669 74.0003 58.9591 77.036 59.086Z" fill="#47393D"/>
<path d="M53.8344 107.325C48.3182 104.331 44.7219 99.9416 43.4261 94.6264C41.9506 88.5655 43.516 81.7219 47.837 75.3542L48.1807 75.5869C43.9286 81.8541 42.379 88.5814 43.8281 94.526C45.0921 99.7248 48.6197 104.025 54.0301 106.96L53.8344 107.325Z" fill="#47393D"/>
<path d="M84.853 198.857H104.776C104.802 198.619 104.85 197.895 104.696 197.128C104.686 197.112 85.1333 197.239 85.1333 197.239L84.853 198.857Z" fill="#47393D"/>
<path d="M85.1338 197.239L104.686 197.112C104.496 195.086 101.957 194.134 99.588 193.531C99.4293 193.489 99.2706 193.457 99.1173 193.415C98.7788 193.336 98.4456 193.262 98.1283 193.193C97.9643 193.156 97.8056 193.119 97.6523 193.087C96.8325 192.902 96.1503 192.749 95.7589 192.564C95.4046 192.394 94.9815 192.151 94.606 191.929C94.479 191.855 94.3627 191.776 94.2516 191.707C93.8973 191.485 93.6487 191.321 93.6487 191.321C92.3688 191.739 90.4437 192.944 86.2074 191.03L86.0805 191.765L86.0064 192.183L85.1338 197.239Z" fill="#B71C1C"/>
<path d="M99.1116 193.415C99.4077 194.097 99.4395 194.832 99.4395 194.843L99.8414 194.827C99.8361 194.785 99.815 194.187 99.5876 193.531C99.4236 193.494 99.2702 193.457 99.1116 193.415Z" fill="#47393D"/>
<path d="M97.647 193.087C97.9749 193.796 98.0066 194.579 98.0066 194.589L98.4086 194.579C98.4086 194.536 98.3821 193.881 98.123 193.193C97.959 193.156 97.8003 193.119 97.647 193.087Z" fill="#47393D"/>
<path d="M86.0115 192.183C87.7568 193.05 89.2482 193.352 90.4805 193.352C92.7652 193.352 94.1614 192.32 94.6057 191.934C94.4788 191.86 94.3624 191.781 94.2514 191.712C93.5056 192.347 90.7819 194.166 86.0802 191.77L86.0115 192.183Z" fill="#47393D"/>
<path d="M48.9106 198.857H68.8334C68.8598 198.619 68.9074 197.895 68.7541 197.128C68.7435 197.112 49.1909 197.239 49.1909 197.239L48.9106 198.857Z" fill="#47393D"/>
<path d="M49.1858 197.239L68.7383 197.112C68.5479 195.086 66.0093 194.134 63.64 193.531C63.4813 193.489 63.3226 193.457 63.1693 193.415C62.8308 193.336 62.4976 193.262 62.1803 193.193C62.0163 193.156 61.8576 193.119 61.7043 193.087C60.8845 192.902 60.2023 192.749 59.8109 192.564C59.4566 192.394 59.0335 192.151 58.658 191.929C58.531 191.855 58.4147 191.776 58.3036 191.707C57.9493 191.485 57.7007 191.321 57.7007 191.321C56.4208 191.739 54.4957 192.944 50.2594 191.03L50.1325 191.765L50.0584 192.183L49.1858 197.239Z" fill="#B71C1C"/>
<path d="M63.1692 193.415C63.4654 194.097 63.4971 194.832 63.4971 194.843L63.899 194.827C63.8937 194.785 63.8726 194.187 63.6452 193.531C63.4812 193.494 63.3279 193.457 63.1692 193.415Z" fill="#47393D"/>
<path d="M61.7039 193.087C62.0318 193.796 62.0635 194.579 62.0635 194.589L62.4654 194.579C62.4654 194.536 62.439 193.881 62.1798 193.193C62.0159 193.156 61.8572 193.119 61.7039 193.087Z" fill="#47393D"/>
<path d="M50.0688 192.183C51.8141 193.05 53.3056 193.352 54.5378 193.352C56.8226 193.352 58.2188 192.32 58.6631 191.934C58.5361 191.86 58.4198 191.781 58.3087 191.712C57.563 192.347 54.8393 194.166 50.1376 191.77L50.0688 192.183Z" fill="#47393D"/>
<path d="M54.4903 88.1266L54.1306 87.9203C55.2413 86.0163 56.9337 84.2869 59.1549 82.7849L59.3876 83.1287C57.214 84.5937 55.5692 86.2755 54.4903 88.1266Z" fill="#47393D"/>
<path d="M59.7017 79.4364L58.1155 87.5705L58.5204 87.6495L60.1066 79.5153L59.7017 79.4364Z" fill="#47393D"/>
<path d="M104.708 77.5187L100.168 81.002L100.419 81.3293L104.959 77.846L104.708 77.5187Z" fill="#47393D"/>
<path d="M54.4165 102.845C54.7973 103.152 55.9978 104.183 56.4844 104.263C56.9339 104.342 59.4144 104.442 59.3456 104.966C59.2716 105.516 57.5792 105.088 57.595 105.532C57.6056 105.807 60.9111 106.695 60.5779 107.277C60.3611 107.658 58.4307 106.843 58.3936 107.081C58.3566 107.304 60.9428 107.806 60.6466 108.388C60.3399 108.996 57.8542 107.468 57.7273 107.753C57.6638 107.896 60.6837 108.98 60.4298 109.446C60.0913 110.07 57.7749 108.536 57.595 108.806C57.5051 108.938 58.4254 109.334 58.9384 109.641C59.224 109.81 59.1341 110.07 58.9066 110.059C56.5743 109.953 53.6496 107.118 53.2741 106.986C52.7188 106.785 52.1793 106.579 51.6558 106.367L54.4165 102.845Z" fill="#FFBA8C"/>
<path d="M270.208 193.267L271.102 182.822H263.444L263.909 193.267H270.208Z" fill="#FFB486"/>
<path d="M271.075 182.991L270.568 188.872C267.87 189.047 265.263 188.713 263.687 188.438L263.412 182.367L271.075 182.991Z" fill="#FCA377"/>
<path d="M272.228 198.857H252.305C252.279 198.619 252.231 197.895 252.385 197.128C252.395 197.112 271.948 197.239 271.948 197.239L272.228 198.857Z" fill="#47393D"/>
<path d="M271.948 197.239L252.396 197.112C252.586 195.086 255.124 194.134 257.494 193.531C257.653 193.489 257.811 193.457 257.965 193.415C258.303 193.336 258.636 193.262 258.954 193.193C259.118 193.156 259.276 193.119 259.43 193.087C260.249 192.902 260.932 192.749 261.323 192.564C261.677 192.394 262.1 192.151 262.476 191.929C262.603 191.855 262.719 191.776 262.83 191.707C263.185 191.485 263.433 191.321 263.433 191.321C264.713 191.739 266.638 192.944 270.874 191.03L271.001 191.765L271.075 192.183L271.948 197.239Z" fill="black"/>
<path d="M257.964 193.415C257.668 194.097 257.636 194.832 257.636 194.843L257.234 194.827C257.24 194.785 257.261 194.187 257.488 193.531C257.652 193.494 257.811 193.457 257.964 193.415Z" fill="#47393D"/>
<path d="M259.429 193.087C259.101 193.796 259.07 194.579 259.07 194.589L258.668 194.579C258.668 194.536 258.694 193.881 258.953 193.193C259.117 193.156 259.276 193.119 259.429 193.087Z" fill="#47393D"/>
<path d="M271.065 192.183C269.319 193.05 267.828 193.352 266.596 193.352C264.311 193.352 262.915 192.32 262.47 191.934C262.597 191.86 262.714 191.781 262.825 191.712C263.571 192.347 266.294 194.166 270.996 191.77L271.065 192.183Z" fill="#47393D"/>
<path d="M225.354 193.267L228.649 182.822H220.991L218.653 193.267H225.354Z" fill="#FFB486"/>
<path d="M228.665 182.732L226.851 188.475C223.403 189.089 220.748 188.507 219.806 188.243L221.113 182.409H223.847L228.665 182.732Z" fill="#FCA377"/>
<path d="M265.861 62.2381C265.861 62.2381 286.529 66.0248 284.668 86.4712C283.895 94.9702 279.469 98.2334 279.469 98.2334L275.116 93.6586L266.85 96.4405L265.861 62.2381Z" fill="white"/>
<path d="M254.384 64.2108L255.833 53.0991H262.407L263.957 64.2108H254.384Z" fill="#FFB587"/>
<path d="M257.742 57.3883C261.894 56.2195 266.802 50.4865 264.967 43.8597C263.512 38.6026 254.537 40.0518 252.142 44.5631C248.424 51.5654 248.196 60.075 257.742 57.3883Z" fill="#FFB587"/>
<path d="M291.168 93.8384L289.232 100.275C288.666 102.163 286.625 103.199 284.731 102.56L190.528 70.7371C188.724 70.1289 187.725 68.2197 188.27 66.4162C188.809 64.618 190.697 63.5761 192.538 64.0574L288.677 89.4434C290.607 89.9617 291.733 91.9503 291.168 93.8384Z" fill="black"/>
<path d="M207.011 67.5801C211.931 47.4044 199.564 27.0604 179.388 22.1406C159.213 17.2207 138.869 29.5881 133.949 49.7638C129.029 69.9395 141.396 90.2835 161.572 95.2033C181.748 100.123 202.092 87.7558 207.011 67.5801Z" fill="white"/>
<path d="M219.833 75.333C219.431 75.0474 218.119 74.1695 217.908 73.7253C217.712 73.3127 216.945 70.9539 216.458 71.1602C215.951 71.377 216.818 72.8949 216.384 72.9954C216.12 73.0589 214.369 70.1183 213.904 70.5943C213.597 70.9063 214.898 72.5406 214.681 72.6463C214.48 72.7415 213.296 70.388 212.814 70.8323C212.312 71.2924 214.459 73.2757 214.216 73.4714C214.094 73.5719 212.238 70.9592 211.857 71.3294C211.349 71.8213 213.454 73.6406 213.238 73.8892C213.132 74.0108 212.502 73.2334 212.074 72.8209C211.836 72.5935 211.609 72.7468 211.683 72.9637C212.413 75.1797 215.935 77.2317 216.162 77.5543C216.501 78.0356 216.85 78.501 217.194 78.9453L219.833 75.333Z" fill="#FFBA8C"/>
<path d="M170.452 92.1143C168.939 92.1143 167.416 92.0085 165.893 91.797C164.338 91.5854 162.794 91.2575 161.297 90.8291C145.373 86.3019 135.086 70.5044 137.36 54.0776C137.709 51.5495 138.349 49.0585 139.264 46.6627C140.316 43.9179 141.734 41.3158 143.479 38.9306C144.711 37.2487 146.118 35.6621 147.657 34.2289C149.799 32.2297 152.184 30.5214 154.76 29.1569C161.006 25.8144 168.04 24.5663 175.085 25.5447C179.02 26.0895 182.769 27.3059 186.233 29.1569C188.804 30.532 191.189 32.235 193.32 34.2289C194.859 35.6674 196.261 37.2487 197.483 38.9306C199.223 41.3052 200.645 43.9073 201.708 46.6627C202.713 49.2595 203.385 51.9885 203.713 54.7651C203.877 56.156 203.951 57.5787 203.935 58.9908C203.924 60.4082 203.813 61.8414 203.618 63.2588C203.438 64.5546 203.184 65.845 202.861 67.0985C202.502 68.4683 202.063 69.8116 201.55 71.0862C200.391 73.995 198.826 76.724 196.901 79.1886C190.517 87.3914 180.68 92.1143 170.452 92.1143ZM170.431 25.6346C165.041 25.6346 159.769 26.9515 154.961 29.5219C152.422 30.8758 150.058 32.5629 147.948 34.5356C146.425 35.953 145.034 37.5185 143.823 39.1791C142.099 41.5379 140.697 44.1082 139.661 46.8161C138.756 49.1802 138.127 51.6394 137.783 54.1357C135.535 70.3563 145.695 85.9635 161.424 90.4325C162.899 90.8556 164.428 91.1729 165.962 91.3844C177.613 93.0028 189.349 88.2323 196.584 78.94C198.482 76.5019 200.027 73.8099 201.174 70.9381C201.682 69.6794 202.116 68.3519 202.47 66.998C202.787 65.7604 203.041 64.4858 203.216 63.2059C203.411 61.8044 203.517 60.387 203.528 58.9908C203.544 57.5946 203.469 56.1931 203.311 54.818C202.988 52.0731 202.322 49.3811 201.333 46.8161C200.286 44.0924 198.879 41.522 197.16 39.1791C195.949 37.5185 194.569 35.953 193.051 34.5356C190.946 32.5682 188.592 30.8811 186.054 29.5219C182.632 27.692 178.93 26.4914 175.042 25.952C173.493 25.7404 171.959 25.6346 170.431 25.6346Z" fill="white"/>
<path d="M175.962 19.2299C154.173 16.21 134.07 31.4152 131.05 53.2049C128.025 74.984 143.236 95.0918 165.025 98.117C186.804 101.137 206.912 85.9264 209.932 64.1473C212.952 42.3577 197.742 22.2551 175.962 19.2299ZM203.342 63.2271C200.825 81.3728 184.081 94.0394 165.93 91.5272C147.784 89.0098 135.117 72.2603 137.63 54.1146C140.147 35.9688 156.891 23.297 175.047 25.8144C193.193 28.3319 205.86 45.0814 203.342 63.2271Z" fill="black"/>
<path d="M170.563 93.8437C168.934 93.8437 167.3 93.7327 165.66 93.5052C146.457 90.845 132.997 73.0536 135.662 53.8449C136.953 44.5419 141.787 36.2968 149.281 30.6272C156.77 24.9629 166.025 22.5513 175.328 23.8417C184.631 25.1322 192.871 29.9661 198.54 37.4603C204.205 44.9492 206.616 54.1992 205.326 63.5074C204.035 72.8103 199.201 81.0555 191.712 86.7198C185.53 91.3844 178.168 93.8437 170.563 93.8437ZM170.42 23.9158C162.905 23.9158 155.627 26.3433 149.524 30.9604C142.12 36.5612 137.344 44.7059 136.069 53.903C133.436 72.8844 146.737 90.4642 165.718 93.098C174.91 94.3726 184.054 91.9927 191.459 86.3919C198.863 80.7911 203.639 72.6464 204.913 63.4545C206.188 54.2574 203.808 45.1184 198.207 37.7141C192.612 30.3099 184.462 25.5341 175.27 24.2595C173.646 24.0268 172.028 23.9158 170.42 23.9158Z" fill="white"/>
<path d="M170.568 98.3762C168.733 98.3762 166.881 98.2492 165.03 97.9901C143.352 94.9861 128.157 74.8994 131.161 53.2155C132.616 42.712 138.079 33.4038 146.536 27.0044C154.992 20.605 165.438 17.8866 175.941 19.341C186.445 20.7954 195.748 26.2587 202.147 34.7154C208.541 43.1721 211.259 53.6174 209.805 64.1209C208.351 74.6244 202.893 83.9326 194.436 90.3267C187.471 95.6049 179.157 98.3762 170.568 98.3762ZM170.409 19.378C161.91 19.378 153.681 22.1229 146.79 27.3376C138.423 33.6682 133.018 42.8813 131.579 53.2737C128.607 74.7301 143.637 94.6053 165.094 97.5828C175.486 99.0267 185.821 96.3294 194.193 89.9988C202.559 83.6681 207.965 74.4604 209.403 64.068C210.847 53.6703 208.155 43.3361 201.824 34.9693C195.494 26.6025 186.286 21.1974 175.894 19.7588C174.058 19.5049 172.228 19.378 170.409 19.378Z" fill="#47393D"/>
<g opacity="0.44">
<path d="M161.355 46.742V90.6334C145.663 86.175 135.266 70.7213 137.566 54.1093C137.921 51.5336 138.566 49.0691 139.454 46.742H161.355Z" fill="#B3C0C6"/>
<path d="M203.506 54.7968H166.348V46.742H201.518C202.502 49.3018 203.179 52.0043 203.506 54.7968Z" fill="#D5DCE0"/>
<path d="M203.723 58.9961C203.713 60.3976 203.607 61.815 203.411 63.2429C203.231 64.544 202.978 65.8186 202.66 67.0561H166.348V58.9961H203.723Z" fill="#D5DCE0"/>
<path d="M201.354 71.0174C200.185 73.9421 198.625 76.6499 196.731 79.0722H166.342V71.0174H201.354Z" fill="#D5DCE0"/>
<path d="M186.138 29.3367H154.861C160.832 26.1423 167.839 24.7461 175.058 25.7456C179.051 26.301 182.78 27.5438 186.138 29.3367Z" fill="#D5DCE0"/>
<path d="M197.313 39.0574H143.648C144.886 37.365 146.277 35.7996 147.8 34.3822H193.178C194.706 35.8102 196.092 37.3703 197.313 39.0574Z" fill="#B3C0C6"/>
</g>
<path d="M257.383 185.778C264.623 186.915 271.356 187.386 276.475 185.778C276.475 185.778 280.807 137.233 273.128 92.6326L257.774 92.7013C257.774 92.7013 251.872 146.303 257.383 185.778Z" fill="black"/>
<path d="M215.168 185.778C222.16 186.767 228.697 186.995 234.377 185.778C257.938 142.072 267.796 92.7013 267.796 92.7013H249.592C226.079 133.208 215.168 185.778 215.168 185.778Z" fill="black"/>
<path d="M230.336 80.003L220.002 74.4445L216.237 79.3419C216.237 79.3419 222.329 95.2188 234.271 93.886C243.828 92.8177 249.587 74.91 249.587 74.91L230.336 80.003Z" fill="white"/>
<path d="M277.681 106.003C261.244 113.486 237.354 106.933 237.354 106.933L238.084 104.511L238.195 104.136L244.41 83.446L228.067 83.2503C228.067 83.2503 239.015 67.8918 245.388 64.1526C247.054 63.1795 249.286 62.4391 251.809 61.9789C252.004 61.9419 252.205 61.9102 252.406 61.8784C256.51 61.2068 261.312 61.2544 265.692 62.1799C265.845 62.2116 265.998 62.2434 266.152 62.2804C268.606 62.8357 270.912 63.6713 272.868 64.819C272.868 64.819 271.694 71.4194 273.339 75.8989C277.073 86.0904 277.639 98.2651 277.697 103.453C277.702 103.601 277.702 103.739 277.702 103.871C277.708 105.23 277.681 106.003 277.681 106.003Z" fill="white"/>
<path d="M235.674 73.2307L228.842 81.6148L229.162 81.8754L235.994 73.4913L235.674 73.2307Z" fill="#47393D"/>
<path d="M256.933 48.1277C256.933 48.1277 251.576 46.1179 252.988 39.6339C252.988 39.6339 253.607 40.1258 255.505 39.9671C257.245 39.8243 263.698 37.0953 266.94 43.299C270.155 49.4498 265.739 56.7589 261.37 55.4896C257.346 54.3208 256.864 49.5398 256.933 48.1277Z" fill="#47393D"/>
<path d="M257.885 51.5654C258.908 51.5654 259.737 50.7366 259.737 49.7143C259.737 48.692 258.908 47.8632 257.885 47.8632C256.863 47.8632 256.034 48.692 256.034 49.7143C256.034 50.7366 256.863 51.5654 257.885 51.5654Z" fill="#FFB587"/>
<path d="M276.248 53.7338C276.872 53.8607 278.935 54.4372 279.744 56.4839C280.786 59.1389 281.426 60.7361 284.784 61.0375L283.901 62.0636C276.819 62.4391 280.839 53.6703 274.746 55.1036C272.81 55.5584 272.107 52.3799 271.515 47.6887C270.922 42.9923 266.041 45.2347 266.041 45.2347L265.977 42.8231C265.977 42.8231 268.928 37.7353 273.144 40.3638C277.359 42.9923 276.052 49.0744 282.013 45.4516C289.015 41.1994 293.167 51.2798 293.167 51.2798L285.186 60.5668C284.424 60.5774 282.082 60.4188 280.918 58.1393C279.474 55.3151 279.21 54.2521 276.248 53.7338Z" fill="#47393D"/>
<path d="M254.347 58.1182C252.269 58.1182 251.142 57.0445 251.079 56.9811L251.37 56.6849C251.449 56.7642 253.374 58.5783 256.928 57.1715L257.081 57.5576C256.039 57.9648 255.13 58.1182 254.347 58.1182Z" fill="#47393D"/>
<path d="M263.619 61.7092C258.774 63.9887 254.749 61.4977 254.749 61.4977L254.86 60.6092L263.439 60.4981L263.619 61.7092Z" fill="#FFB587"/>
<path d="M277.697 103.876C271.372 106.479 264.597 107.33 258.43 107.33C248.942 107.33 240.882 105.304 238.079 104.511L238.19 104.136C242.786 105.447 261.709 110.101 277.687 103.453C277.697 103.607 277.697 103.744 277.697 103.876Z" fill="#47393D"/>
<path d="M277.475 106.003C277.475 105.828 277.417 88.2323 273.144 75.973L273.535 75.8355C277.835 88.1583 277.893 105.823 277.893 106.003H277.475Z" fill="#47393D"/>
<path d="M266.152 62.2857C264.359 64.0098 262.248 64.5969 260.191 64.5969C256.23 64.5969 252.507 62.4126 251.814 61.9895C252.009 61.9525 252.21 61.9208 252.411 61.889C254.294 62.9732 261.074 66.358 265.697 62.1905C265.85 62.2117 266.003 62.2487 266.152 62.2857Z" fill="#47393D"/>
<path d="M227.501 198.857H207.584C207.558 198.619 207.51 197.895 207.663 197.128C207.674 197.112 227.226 197.239 227.226 197.239L227.501 198.857Z" fill="#47393D"/>
<path d="M227.221 197.239L207.668 197.112C207.859 195.086 210.397 194.134 212.767 193.531C212.925 193.489 213.084 193.457 213.237 193.415C213.576 193.336 213.909 193.262 214.226 193.193C214.39 193.156 214.549 193.119 214.702 193.087C215.522 192.902 216.204 192.749 216.596 192.564C216.95 192.394 217.373 192.151 217.749 191.929C217.876 191.855 217.992 191.776 218.103 191.707C218.457 191.485 218.706 191.321 218.706 191.321C219.986 191.739 221.911 192.944 226.147 191.03L226.274 191.765L226.348 192.183L227.221 197.239Z" fill="black"/>
<path d="M213.243 193.415C212.947 194.097 212.915 194.832 212.915 194.843L212.513 194.827C212.518 194.785 212.539 194.187 212.767 193.531C212.931 193.494 213.084 193.457 213.243 193.415Z" fill="#47393D"/>
<path d="M214.703 193.087C214.375 193.796 214.343 194.579 214.343 194.589L213.941 194.579C213.941 194.536 213.967 193.881 214.227 193.193C214.39 193.156 214.554 193.119 214.703 193.087Z" fill="#47393D"/>
<path d="M226.343 192.183C224.598 193.05 223.106 193.352 221.874 193.352C219.589 193.352 218.193 192.32 217.749 191.934C217.876 191.86 217.992 191.781 218.103 191.712C218.849 192.347 221.573 194.166 226.274 191.77L226.343 192.183Z" fill="#47393D"/>
<path d="M293.373 50.1586C293.352 50.1057 291.03 44.965 287.249 43.8385C285.657 43.3625 284.017 43.664 282.367 44.727C280.78 45.7478 279.606 46.1233 278.665 45.9011C277.554 45.6367 276.941 44.6001 276.227 43.3995C275.502 42.1778 274.682 40.7869 273.138 39.8878C272.049 39.2479 270.959 39.0733 269.907 39.3642C267.707 39.9724 266.342 42.437 266.331 42.4582L265.967 42.2625C266.025 42.1567 267.421 39.6234 269.796 38.9676C270.964 38.645 272.154 38.8354 273.35 39.5335C274.984 40.4907 275.835 41.924 276.581 43.1933C277.247 44.3145 277.819 45.2823 278.76 45.5045C279.585 45.7002 280.659 45.3405 282.14 44.3833C283.895 43.2515 285.651 42.9341 287.365 43.4471C291.331 44.6318 293.653 49.7778 293.748 49.9946L293.373 50.1586Z" fill="#47393D"/>
<path d="M256.886 48.3287C254.083 47.6517 252.353 46.4511 251.74 44.7693C250.825 42.2572 252.739 39.6234 252.819 39.5123L253.152 39.7556C253.131 39.782 251.29 42.3206 252.126 44.6265C252.686 46.1708 254.321 47.2815 256.981 47.9267L256.886 48.3287Z" fill="#47393D"/>
<path d="M234.557 185.879L234.192 185.683C246.853 162.196 255.505 137.037 260.54 120.065L260.937 120.182C255.902 137.169 247.234 162.36 234.557 185.879Z" fill="#47393D"/>
<path d="M248.799 79.6254L246.546 82.2286L246.858 82.4986L249.111 79.8953L248.799 79.6254Z" fill="#47393D"/>
<path d="M275.788 103.839H275.375C275.375 99.8147 274.889 94.7587 274.883 94.7058L275.296 94.6635C275.301 94.7163 275.788 99.7935 275.788 103.839Z" fill="#47393D"/>
<path d="M232.87 94.1663C221.837 94.1663 216.104 79.5693 216.041 79.416L216.427 79.2679C216.485 79.4265 222.604 94.9755 234.245 93.6797C243.558 92.6378 249.328 75.021 249.386 74.8412L249.778 74.9681C249.54 75.7032 243.865 93.0186 234.287 94.087C233.811 94.1399 233.335 94.1663 232.87 94.1663Z" fill="#47393D"/>
<g opacity="0.8">
<path d="M197.535 70.9804C197.895 68.1192 198.181 65.4113 198.271 62.7141C198.334 60.0274 198.234 57.3671 197.9 54.7492C197.578 52.1207 197.022 49.5345 196.287 46.943C195.531 44.3568 194.568 41.8023 193.511 39.1209L193.68 38.9993C194.526 40.1258 195.298 41.2999 195.991 42.5269C196.679 43.7539 197.287 45.0285 197.816 46.3348C198.874 48.9474 199.593 51.6976 199.952 54.4953C200.296 57.2931 200.275 60.1384 199.905 62.9309C199.72 64.3271 199.45 65.7128 199.09 67.072C198.72 68.4312 198.265 69.764 197.726 71.065L197.535 70.9804Z" fill="white"/>
</g>
<g opacity="0.8">
<path d="M174.529 88.2059C172.964 88.0155 171.441 87.7246 169.96 87.3438C154.268 83.3455 143.871 69.4837 146.171 54.5747C146.525 52.2635 147.171 50.0528 148.059 47.9638C149.122 45.478 150.54 43.1669 152.248 41.0672C153.485 39.5493 154.876 38.1478 156.4 36.8732C158.515 35.1015 160.89 33.5731 163.455 32.3513C167.279 30.5161 171.525 29.3473 175.979 28.9718C169.304 28.4218 162.873 29.6911 157.325 32.3513C154.76 33.5783 152.385 35.1015 150.27 36.8732C148.747 38.1478 147.356 39.5493 146.118 41.0672C144.41 43.1616 142.993 45.478 141.93 47.9638C141.041 50.0528 140.396 52.2635 140.041 54.5747C137.736 69.4784 148.139 83.3402 163.83 87.3438C165.306 87.7246 166.834 88.0102 168.4 88.2059C170.997 88.5285 173.562 88.5708 176.063 88.3646C175.555 88.3275 175.042 88.2694 174.529 88.2059ZM174.529 88.2059C172.964 88.0155 171.441 87.7246 169.96 87.3438C154.268 83.3455 143.871 69.4837 146.171 54.5747C146.525 52.2635 147.171 50.0528 148.059 47.9638C149.122 45.478 150.54 43.1669 152.248 41.0672C153.485 39.5493 154.876 38.1478 156.4 36.8732C158.515 35.1015 160.89 33.5731 163.455 32.3513C167.279 30.5161 171.525 29.3473 175.979 28.9718C169.304 28.4218 162.873 29.6911 157.325 32.3513C154.76 33.5783 152.385 35.1015 150.27 36.8732C148.747 38.1478 147.356 39.5493 146.118 41.0672C144.41 43.1616 142.993 45.478 141.93 47.9638C141.041 50.0528 140.396 52.2635 140.041 54.5747C137.736 69.4784 148.139 83.3402 163.83 87.3438C165.306 87.7246 166.834 88.0102 168.4 88.2059C170.997 88.5285 173.562 88.5708 176.063 88.3646C175.555 88.3275 175.042 88.2694 174.529 88.2059Z" fill="white"/>
</g>
<path d="M282.43 152.279C282.425 151.528 282.42 133.79 290.432 131.151L290.554 131.526C282.811 134.081 282.822 152.094 282.822 152.274L282.43 152.279Z" fill="#47393D"/>
<path d="M293.611 169.51L293.219 169.436C294.663 161.698 301.036 136.973 311.005 125.227L311.307 125.481C301.396 137.164 295.054 161.799 293.611 169.51Z" fill="#47393D"/>
<path d="M283.673 162.148C283.409 148.603 278.273 141.448 278.22 141.374L278.538 141.141C278.591 141.21 283.8 148.461 284.07 162.137L283.673 162.148Z" fill="#47393D"/>
<path d="M290.194 179.786H289.798C289.798 179.675 289.845 168.463 293.859 157.393L294.235 157.531C290.237 168.531 290.194 179.675 290.194 179.786Z" fill="#47393D"/>
<path d="M247.63 184.964C244.193 181.346 244.33 175.005 244.335 174.74L244.732 174.751C244.732 174.815 244.595 181.193 247.916 184.694L247.63 184.964Z" fill="#47393D"/>
<path d="M274.392 180.701L273.995 180.669C274.016 180.421 275.999 155.685 274.265 141.818L274.656 141.77C276.401 155.675 274.413 180.452 274.392 180.701Z" fill="#47393D"/>
</svg>
